<svg xmlns="http://www.w3.org/2000/svg" width="1200" height="630" viewBox="0 0 1200 630" fill="none" role="img" aria-label="Yard Shapers LLC — Landscaping & Irrigation, Bainbridge GA">
  <defs>
    <linearGradient id="bg" x1="0" y1="0" x2="1" y2="1">
      <stop offset="0" stop-color="#1f4d3a"/>
      <stop offset="1" stop-color="#0f261c"/>
    </linearGradient>
    <radialGradient id="glow" cx="82%" cy="18%" r="60%">
      <stop offset="0" stop-color="#3f7a52" stop-opacity=".55"/>
      <stop offset="1" stop-color="#3f7a52" stop-opacity="0"/>
    </radialGradient>
  </defs>
  <rect width="1200" height="630" fill="url(#bg)"/>
  <rect width="1200" height="630" fill="url(#glow)"/>
  <!-- topographic lines -->
  <g stroke="#5e9a73" stroke-width="1.4" opacity=".4" fill="none">
    <path d="M-40 470C180 420 360 452 560 416 760 380 940 430 1240 392"/>
    <path d="M-40 520C200 470 380 500 580 464 780 428 960 476 1240 440"/>
    <path d="M-40 410C160 360 360 392 560 356 760 320 940 368 1240 332"/>
    <path d="M-40 560C220 510 400 540 600 506 800 472 980 516 1240 484"/>
  </g>
  <!-- botanical frond -->
  <g transform="translate(880,360)" stroke="#8fb070" stroke-width="3" stroke-linecap="round" fill="none" opacity=".5">
    <path d="M0 240C0 150 30 80 90 30 140-12 180-4 190-4"/>
    <g stroke-width="2.4">
      <path d="M90 30c-30-8-54-2-78 18M98 8c28-14 56-16 88-6M70 78c-32-6-58 4-78 30M110-18c24-18 56-26 90-22M50 122c-34 0-60 14-78 44"/>
    </g>
  </g>
  <!-- leaf mark -->
  <g transform="translate(96,86)">
    <rect width="74" height="74" rx="18" fill="#1f4d3a" stroke="#d8a64a" stroke-width="2" stroke-opacity=".4"/>
    <path d="M37 60c0-15-10-19-10-29a10 10 0 0 1 20 0c0 10-10 14-10 29Z" fill="none" stroke="#d8a64a" stroke-width="3.4" stroke-linejoin="round"/>
    <path d="M37 30v22" stroke="#d8a64a" stroke-width="3.4" stroke-linecap="round"/>
  </g>
  <text x="190" y="120" font-family="Hanken Grotesk,Arial,sans-serif" font-size="26" letter-spacing="6" font-weight="700" fill="#d8a64a">YARD SHAPERS LLC</text>
  <text x="190" y="152" font-family="Hanken Grotesk,Arial,sans-serif" font-size="20" letter-spacing="3" fill="#cfe0d2" opacity=".85">BAINBRIDGE, GEORGIA</text>
  <text x="94" y="330" font-family="Georgia,'Bricolage Grotesque',serif" font-size="86" font-weight="600" fill="#ffffff">Lawns kept sharp.</text>
  <text x="94" y="424" font-family="Georgia,'Bricolage Grotesque',serif" font-size="86" font-weight="600" fill="#ffffff"><tspan fill="#d8a64a">Landscapes</tspan> built to last.</text>
  <text x="94" y="510" font-family="Hanken Grotesk,Arial,sans-serif" font-size="30" fill="#cfe0d2" opacity=".9">Lawn &#183; Landscape &#183; Irrigation</text>
  <g transform="translate(94,548)">
    <rect width="320" height="52" rx="26" fill="#c0613a"/>
    <text x="160" y="34" text-anchor="middle" font-family="Hanken Grotesk,Arial,sans-serif" font-size="24" font-weight="700" fill="#ffffff">(229) 254-7308</text>
  </g>
</svg>
