<svg xmlns="http://www.w3.org/2000/svg" xmlns:xlink="http://www.w3.org/1999/xlink" viewBox="0 0 90.444 90.444"><defs><clipPath id="clip-path"><rect id="Rect&#xE1;ngulo_5" data-name="Rect&#xE1;ngulo 5" width="421" height="90.444" fill="none"></rect></clipPath></defs><g id="Grupo_450" data-name="Grupo 450" transform="translate(0 0)"><g id="Grupo_7" data-name="Grupo 7" transform="translate(0 0)"><g id="Grupo_6" data-name="Grupo 6" clip-path="url(#clip-path)"><path id="Trazado_15" data-name="Trazado 15" d="M90.444,45.221A45.222,45.222,0,1,1,45.223,0,45.221,45.221,0,0,1,90.444,45.221" transform="translate(0 0)" fill="#b1ba96"></path><path id="Trazado_16" data-name="Trazado 16" d="M13.778,13.676S36.1,11.418,48.649,23.962,59.685,59.583,59.685,59.583,36.607,61.339,24.314,49.046,13.778,13.676,13.778,13.676" transform="translate(8.55 8.441)" fill="#69763f"></path><path id="Trazado_17" data-name="Trazado 17" d="M57.027,61.708c-6.993,0-23.267-1.147-33.182-11.062C11.222,38.024,12.809,15.1,12.884,14.128l.094-1.222,1.218-.125a60.006,60.006,0,0,1,13.083.447c9.672,1.358,17.615,4.906,22.97,10.26C63.113,36.352,61.777,59.273,61.713,60.241L61.63,61.51l-1.267.1c-.208.015-1.426.1-3.337.1M15.75,15.613c-.135,4.906.107,22.9,10.166,32.962,10.042,10.042,27.942,10.3,32.918,10.169.075-4.976-.408-22.937-10.655-33.184S20.543,15.379,15.75,15.613" transform="translate(7.982 7.877)" fill="#162017"></path><path id="Trazado_18" data-name="Trazado 18" d="M13.728,59.543S11.47,37.217,24.014,24.673,59.635,13.637,59.635,13.637,61.391,36.715,49.1,49.007,13.728,59.543,13.728,59.543" transform="translate(8.473 8.48)" fill="#69763f"></path><path id="Trazado_19" data-name="Trazado 19" d="M17.517,61.671c-1.912,0-3.129-.084-3.337-.1l-1.222-.093-.123-1.22a59.928,59.928,0,0,1,.445-13.082c1.358-9.672,4.906-17.615,10.26-22.971C36.406,11.341,59.324,12.676,60.294,12.741l1.269.083.1,1.269c.075.968,1.662,23.894-10.96,36.517-9.914,9.914-26.186,11.061-33.181,11.061M15.667,58.7c4.9.138,22.9-.107,32.96-10.166C58.669,38.5,58.932,20.592,58.8,15.623c-4.964-.071-22.935.4-33.184,10.653C15.381,36.507,15.438,53.9,15.667,58.7" transform="translate(7.91 7.914)" fill="#162017"></path><path id="Trazado_20" data-name="Trazado 20" d="M46.156,32.924A13.231,13.231,0,1,1,32.925,19.693,13.233,13.233,0,0,1,46.156,32.924" transform="translate(12.298 12.297)" fill="#162017"></path><path id="Trazado_21" data-name="Trazado 21" d="M35.135,6.361S53.774,21.577,53.774,40.6,35.135,75.972,35.135,75.972,16.306,59.805,16.306,41.166,35.135,6.361,35.135,6.361" transform="translate(10.182 3.972)" fill="#b1ba96"></path><path id="Trazado_22" data-name="Trazado 22" d="M35.954,79.8l-1.378-1.184c-.8-.686-19.56-17.016-19.56-36.394S33.778,6.508,34.577,5.823l1.329-1.142,1.358,1.108c.793.648,19.409,16.072,19.409,35.858,0,19.74-18.561,36.256-19.352,36.95Zm.021-70.489c-4.3,4.146-17.255,17.874-17.255,32.911,0,14.982,12.853,28.663,17.206,32.866,4.31-4.258,17.042-18.134,17.042-33.452S40.266,13.273,35.976,9.306" transform="translate(9.377 2.923)" fill="#162017"></path><path id="Trazado_23" data-name="Trazado 23" d="M6.412,34.894S21.628,16.255,40.647,16.255,76.023,34.894,76.023,34.894,59.856,53.723,41.217,53.723,6.412,34.894,6.412,34.894" transform="translate(4.004 10.151)" fill="#69763f"></path><path id="Trazado_24" data-name="Trazado 24" d="M42.136,56.259c-19.259,0-35.512-18.673-36.2-19.467l-1-1.163.971-1.189a64.5,64.5,0,0,1,10.3-9.623c8.408-6.339,17.175-9.688,25.353-9.688,19.623,0,36.064,18.475,36.753,19.263l1.049,1.194-1.035,1.207c-.684.794-16.938,19.467-36.2,19.467M9.795,35.57C13.632,39.587,27.21,52.6,42.136,52.6c14.873,0,28.411-12.918,32.3-16.984C70.5,31.588,56.77,18.791,41.566,18.791S13.466,31.562,9.795,35.57" transform="translate(3.085 9.447)" fill="#162017"></path><path id="Trazado_25" data-name="Trazado 25" d="M46.156,32.924A13.231,13.231,0,1,1,32.925,19.693,13.233,13.233,0,0,1,46.156,32.924" transform="translate(12.298 12.297)" fill="#162017"></path></g></g><g id="Grupo_9" data-name="Grupo 9" transform="translate(0 0)"><g id="Grupo_8" data-name="Grupo 8" clip-path="url(#clip-path)"></g></g></g></svg>